{
  "accessors": [
    {
      "bufferView": 2,
      "componentType": 5126,
      "count": 5919,
      "max": [
        2.2589316368103027,
        6.395454406738281,
        2.81707763671875
      ],
      "min": [
        -2.290322780609131,
        -4.257011413574219,
        -2.768278121948242
      ],
      "type": "VEC3"
    },
    {
      "bufferView": 2,
      "byteOffset": 71028,
      "componentType": 5126,
      "count": 5919,
      "max": [
        0.9999897480010986,
        0.9999855756759644,
        1.0
      ],
      "min": [
        -0.9999982118606567,
        -0.9999758005142212,
        -0.9999921321868896
      ],
      "type": "VEC3"
    },
    {
      "bufferView": 1,
      "componentType": 5126,
      "count": 5919,
      "max": [
        0.8750001192092896,
        1.0
      ],
      "min": [
        0.1249999925494194,
        0.0
      ],
      "type": "VEC2"
    },
    {
      "bufferView": 0,
      "componentType": 5125,
      "count": 33660,
      "type": "SCALAR"
    },
    {
      "bufferView": 2,
      "byteOffset": 142056,
      "componentType": 5126,
      "count": 24,
      "max": [
        1.0,
        1.0000003576278687,
        1.0
      ],
      "min": [
        -1.0,
        -1.0,
        -1.0
      ],
      "type": "VEC3"
    },
    {
      "bufferView": 2,
      "byteOffset": 142344,
      "componentType": 5126,
      "count": 24,
      "max": [
        0.9867293238639832,
        1.0,
        0.9867291450500488
      ],
      "min": [
        -0.9867293238639832,
        -1.0,
        -0.9867295026779175
      ],
      "type": "VEC3"
    },
    {
      "bufferView": 1,
      "byteOffset": 47352,
      "componentType": 5126,
      "count": 24,
      "max": [
        0.875,
        1.0
      ],
      "min": [
        0.125,
        0.0
      ],
      "type": "VEC2"
    },
    {
      "bufferView": 0,
      "byteOffset": 134640,
      "componentType": 5125,
      "count": 36,
      "type": "SCALAR"
    },
    {
      "bufferView": 2,
      "byteOffset": 142632,
      "componentType": 5126,
      "count": 24,
      "max": [
        1.0,
        1.0000003576278687,
        1.0
      ],
      "min": [
        -1.0,
        -1.0,
        -1.0
      ],
      "type": "VEC3"
    },
    {
      "bufferView": 2,
      "byteOffset": 142920,
      "componentType": 5126,
      "count": 24,
      "max": [
        0.9867293238639832,
        1.0,
        0.9867291450500488
      ],
      "min": [
        -0.9867293238639832,
        -1.0,
        -0.9867295026779175
      ],
      "type": "VEC3"
    },
    {
      "bufferView": 1,
      "byteOffset": 47544,
      "componentType": 5126,
      "count": 24,
      "max": [
        0.875,
        1.0
      ],
      "min": [
        0.125,
        0.0
      ],
      "type": "VEC2"
    },
    {
      "bufferView": 0,
      "byteOffset": 134784,
      "componentType": 5125,
      "count": 36,
      "type": "SCALAR"
    },
    {
      "bufferView": 2,
      "byteOffset": 143208,
      "componentType": 5126,
      "count": 24,
      "max": [
        1.0,
        1.0000003576278687,
        1.0
      ],
      "min": [
        -1.0,
        -1.0,
        -1.0
      ],
      "type": "VEC3"
    },
    {
      "bufferView": 2,
      "byteOffset": 143496,
      "componentType": 5126,
      "count": 24,
      "max": [
        0.9867293238639832,
        1.0,
        0.9867291450500488
      ],
      "min": [
        -0.9867293238639832,
        -1.0,
        -0.9867295026779175
      ],
      "type": "VEC3"
    },
    {
      "bufferView": 1,
      "byteOffset": 47736,
      "componentType": 5126,
      "count": 24,
      "max": [
        0.875,
        1.0
      ],
      "min": [
        0.125,
        0.0
      ],
      "type": "VEC2"
    },
    {
      "bufferView": 0,
      "byteOffset": 134928,
      "componentType": 5125,
      "count": 36,
      "type": "SCALAR"
    },
    {
      "bufferView": 2,
      "byteOffset": 143784,
      "componentType": 5126,
      "count": 24,
      "max": [
        1.0,
        1.0000003576278687,
        1.0
      ],
      "min": [
        -1.0,
        -1.0,
        -1.0
      ],
      "type": "VEC3"
    },
    {
      "bufferView": 2,
      "byteOffset": 144072,
      "componentType": 5126,
      "count": 24,
      "max": [
        0.9867293238639832,
        1.0,
        0.9867291450500488
      ],
      "min": [
        -0.9867293238639832,
        -1.0,
        -0.9867295026779175
      ],
      "type": "VEC3"
    },
    {
      "bufferView": 1,
      "byteOffset": 47928,
      "componentType": 5126,
      "count": 24,
      "max": [
        0.875,
        1.0
      ],
      "min": [
        0.125,
        0.0
      ],
      "type": "VEC2"
    },
    {
      "bufferView": 0,
      "byteOffset": 135072,
      "componentType": 5125,
      "count": 36,
      "type": "SCALAR"
    },
    {
      "bufferView": 2,
      "byteOffset": 144360,
      "componentType": 5126,
      "count": 32,
      "max": [
        0.7500002384185791,
        0.0,
        0.7500002384185791
      ],
      "min": [
        -0.7500002384185791,
        -0.30000001192092896,
        -0.7500002384185791
      ],
      "type": "VEC3"
    },
    {
      "bufferView": 2,
      "byteOffset": 144744,
      "componentType": 5126,
      "count": 32,
      "max": [
        1.0,
        0.0,
        1.0
      ],
      "min": [
        -1.0,
        0.0,
        -1.0
      ],
      "type": "VEC3"
    },
    {
      "bufferView": 1,
      "byteOffset": 48120,
      "componentType": 5126,
      "count": 32,
      "max": [
        1.0,
        1.0
      ],
      "min": [
        0.0,
        0.0
      ],
      "type": "VEC2"
    },
    {
      "bufferView": 0,
      "byteOffset": 135216,
      "componentType": 5125,
      "count": 48,
      "type": "SCALAR"
    },
    {
      "bufferView": 2,
      "byteOffset": 145128,
      "componentType": 5126,
      "count": 60,
      "max": [
        0.7500002384185791,
        0.0,
        0.7500002384185791
      ],
      "min": [
        -0.7500002384185791,
        -0.25,
        -0.7500002384185791
      ],
      "type": "VEC3"
    },
    {
      "bufferView": 2,
      "byteOffset": 145848,
      "componentType": 5126,
      "count": 60,
      "max": [
        0.7071067690849304,
        1.0,
        0.7071067690849304
      ],
      "min": [
        -0.7071067690849304,
        -1.0,
        -0.7071067690849304
      ],
      "type": "VEC3"
    },
    {
      "bufferView": 1,
      "byteOffset": 48376,
      "componentType": 5126,
      "count": 60,
      "max": [
        1.0,
        1.0
      ],
      "min": [
        0.0,
        0.0
      ],
      "type": "VEC2"
    },
    {
      "bufferView": 0,
      "byteOffset": 135408,
      "componentType": 5125,
      "count": 288,
      "type": "SCALAR"
    },
    {
      "bufferView": 2,
      "byteOffset": 146568,
      "componentType": 5126,
      "count": 5929,
      "max": [
        0.7850010395050049,
        -0.27672016620635986,
        0.6843242645263672
      ],
      "min": [
        -0.7419272065162659,
        -0.5143344402313232,
        -0.6395778656005859
      ],
      "type": "VEC3"
    },
    {
      "bufferView": 2,
      "byteOffset": 217716,
      "componentType": 5126,
      "count": 5929,
      "max": [
        1.0,
        1.0,
        0.9865458011627197
      ],
      "min": [
        -0.7401607632637024,
        -0.21430394053459167,
        -0.9999165534973145
      ],
      "type": "VEC3"
    },
    {
      "bufferView": 3,
      "componentType": 5126,
      "count": 5929,
      "max": [
        1.0,
        0.4414054751396179,
        0.5987948179244995,
        1.0
      ],
      "min": [
        -0.12513142824172974,
        -0.9999995827674866,
        -0.6135947108268738,
        1.0
      ],
      "type": "VEC4"
    },
    {
      "bufferView": 1,
      "byteOffset": 48856,
      "componentType": 5126,
      "count": 5929,
      "max": [
        1.0,
        1.0
      ],
      "min": [
        0.0,
        0.0
      ],
      "type": "VEC2"
    },
    {
      "bufferView": 0,
      "byteOffset": 136560,
      "componentType": 5125,
      "count": 34656,
      "type": "SCALAR"
    }
  ],
  "asset": {
    "extras": {
      "author": "franckross (https://sketchfab.com/franckross)",
      "license": "CC-BY-4.0 (http://creativecommons.org/licenses/by/4.0/)",
      "source": "https://sketchfab.com/3d-models/single-wooden-bed-c7bea79b8c7a4b7c9ec5eadfa2529b9a",
      "title": "Single wooden bed"
    },
    "generator": "Sketchfab-12.68.0",
    "version": "2.0"
  },
  "bufferViews": [
    {
      "buffer": 0,
      "byteLength": 275184,
      "name": "floatBufferViews",
      "target": 34963
    },
    {
      "buffer": 0,
      "byteLength": 96288,
      "byteOffset": 275184,
      "byteStride": 8,
      "name": "floatBufferViews",
      "target": 34962
    },
    {
      "buffer": 0,
      "byteLength": 288864,
      "byteOffset": 371472,
      "byteStride": 12,
      "name": "floatBufferViews",
      "target": 34962
    },
    {
      "buffer": 0,
      "byteLength": 94864,
      "byteOffset": 660336,
      "byteStride": 16,
      "name": "floatBufferViews",
      "target": 34962
    }
  ],
  "buffers": [
    {
      "byteLength": 755200,
      "uri": "scene.bin"
    }
  ],
  "images": [
    {
      "uri": "textures/sporchissimo01_normal.jpeg"
    }
  ],
  "materials": [
    {
      "doubleSided": true,
      "name": "sporchissimo0210",
      "pbrMetallicRoughness": {
        "baseColorFactor": [
          0.5174913968460931,
          0.5058681737269262,
          0.47713261156924647,
          1.0
        ],
        "metallicFactor": 0.0,
        "roughnessFactor": 0.8711761352840586
      }
    },
    {
      "doubleSided": true,
      "name": "Materiale.004",
      "pbrMetallicRoughness": {
        "baseColorFactor": [
          0.03709710925778361,
          0.028660978395402176,
          0.028660978395402176,
          1.0
        ],
        "metallicFactor": 0.3300399011970359,
        "roughnessFactor": 0.4328329849895497
      }
    },
    {
      "doubleSided": true,
      "name": "sporchissimo01",
      "normalTexture": {
        "index": 0
      },
      "pbrMetallicRoughness": {
        "baseColorFactor": [
          0.35602677568959123,
          0.33563423955603555,
          0.3015081737936699,
          1.0
        ],
        "metallicFactor": 0.0
      }
    }
  ],
  "meshes": [
    {
      "name": "Object_0",
      "primitives": [
        {
          "attributes": {
            "NORMAL": 1,
            "POSITION": 0,
            "TEXCOORD_0": 2
          },
          "indices": 3,
          "material": 0,
          "mode": 4
        }
      ]
    },
    {
      "name": "Object_1",
      "primitives": [
        {
          "attributes": {
            "NORMAL": 5,
            "POSITION": 4,
            "TEXCOORD_0": 6
          },
          "indices": 7,
          "material": 1,
          "mode": 4
        }
      ]
    },
    {
      "name": "Object_2",
      "primitives": [
        {
          "attributes": {
            "NORMAL": 9,
            "POSITION": 8,
            "TEXCOORD_0": 10
          },
          "indices": 11,
          "material": 1,
          "mode": 4
        }
      ]
    },
    {
      "name": "Object_3",
      "primitives": [
        {
          "attributes": {
            "NORMAL": 13,
            "POSITION": 12,
            "TEXCOORD_0": 14
          },
          "indices": 15,
          "material": 1,
          "mode": 4
        }
      ]
    },
    {
      "name": "Object_4",
      "primitives": [
        {
          "attributes": {
            "NORMAL": 17,
            "POSITION": 16,
            "TEXCOORD_0": 18
          },
          "indices": 19,
          "material": 1,
          "mode": 4
        }
      ]
    },
    {
      "name": "Object_5",
      "primitives": [
        {
          "attributes": {
            "NORMAL": 21,
            "POSITION": 20,
            "TEXCOORD_0": 22
          },
          "indices": 23,
          "material": 1,
          "mode": 4
        }
      ]
    },
    {
      "name": "Object_6",
      "primitives": [
        {
          "attributes": {
            "NORMAL": 25,
            "POSITION": 24,
            "TEXCOORD_0": 26
          },
          "indices": 27,
          "material": 0,
          "mode": 4
        }
      ]
    },
    {
      "name": "Object_7",
      "primitives": [
        {
          "attributes": {
            "NORMAL": 29,
            "POSITION": 28,
            "TANGENT": 30,
            "TEXCOORD_0": 31
          },
          "indices": 32,
          "material": 2,
          "mode": 4
        }
      ]
    }
  ],
  "nodes": [
    {
      "children": [
        1
      ],
      "matrix": [
        1.0,
        0.0,
        0.0,
        0.0,
        0.0,
        2.220446049250313e-16,
        -1.0,
        0.0,
        0.0,
        1.0,
        2.220446049250313e-16,
        0.0,
        0.0,
        0.0,
        0.0,
        1.0
      ],
      "name": "Sketchfab_model"
    },
    {
      "children": [
        2
      ],
      "name": "root"
    },
    {
      "children": [
        3,
        5,
        7,
        9,
        11,
        13,
        15,
        17
      ],
      "matrix": [
        1.0,
        0.0,
        0.0,
        0.0,
        0.0,
        2.220446049250313e-16,
        1.0,
        0.0,
        0.0,
        -1.0,
        2.220446049250313e-16,
        0.0,
        0.0,
        0.0,
        0.0,
        1.0
      ],
      "name": "GLTF_SceneRootNode"
    },
    {
      "children": [
        4
      ],
      "matrix": [
        -0.641913649963048,
        0.0,
        0.003793340107583749,
        0.0,
        0.0,
        0.0848734900355339,
        0.0,
        0.0,
        -0.005357567667046903,
        0.0,
        -0.9066141496784207,
        0.0,
        26.631160736083984,
        3.0078139305114746,
        12.477994918823242,
        1.0
      ],
      "name": "Cubo_6"
    },
    {
      "mesh": 0,
      "name": "Object_4"
    },
    {
      "children": [
        6
      ],
      "matrix": [
        -0.46066567619371157,
        0.0,
        0.002722268931021154,
        0.0,
        0.0,
        -0.7688127160072327,
        -0.0,
        -0.0,
        -0.002075110444638279,
        0.0,
        -0.3511527260450882,
        0.0,
        27.00971794128418,
        0.8923324346542358,
        10.037939071655273,
        1.0
      ],
      "name": "gamba letto 1_7"
    },
    {
      "mesh": 1,
      "name": "Object_6"
    },
    {
      "children": [
        8
      ],
      "matrix": [
        -0.46066567619371157,
        0.0,
        0.002722268931021154,
        0.0,
        0.0,
        -0.7688127160072327,
        -0.0,
        -0.0,
        -0.002075110444638279,
        0.0,
        -0.3511527260450882,
        0.0,
        17.764719009399414,
        0.8923324346542358,
        10.092572212219238,
        1.0
      ],
      "name": "gamba letto 2_8"
    },
    {
      "mesh": 2,
      "name": "Object_8"
    },
    {
      "children": [
        10
      ],
      "matrix": [
        -0.46066567619371157,
        0.0,
        0.002722268931021154,
        0.0,
        0.0,
        -0.7688127160072327,
        -0.0,
        -0.0,
        -0.002075110444638279,
        0.0,
        -0.3511527260450882,
        0.0,
        17.794099807739258,
        0.8923324346542358,
        15.064242362976074,
        1.0
      ],
      "name": "gamba letto 3_9"
    },
    {
      "mesh": 3,
      "name": "Object_10"
    },
    {
      "children": [
        12
      ],
      "matrix": [
        -0.46066567619371157,
        0.0,
        0.002722268931021154,
        0.0,
        0.0,
        -0.7688127160072327,
        -0.0,
        -0.0,
        -0.002075110444638279,
        0.0,
        -0.3511527260450882,
        0.0,
        27.701147079467773,
        0.8923324346542358,
        15.005699157714844,
        1.0
      ],
      "name": "gamba letto4 _10"
    },
    {
      "mesh": 4,
      "name": "Object_12"
    },
    {
      "children": [
        14
      ],
      "matrix": [
        -7.309117488747167,
        0.0,
        0.04319267634003809,
        0.0,
        0.0,
        3.9253928661346436,
        0.0,
        0.0,
        -0.023196409701544612,
        0.0,
        -3.925324804856829,
        0.0,
        22.699016571044922,
        2.2701773643493652,
        12.518952369689941,
        1.0
      ],
      "name": "Piano_11"
    },
    {
      "mesh": 5,
      "name": "Object_14"
    },
    {
      "children": [
        16
      ],
      "matrix": [
        -7.191725091149903,
        0.0,
        0.042498954855603614,
        0.0,
        0.0,
        4.776429176330566,
        0.0,
        0.0,
        -0.022470807810297252,
        0.0,
        -3.8025375658482576,
        0.0,
        22.72928810119629,
        2.877124309539795,
        12.543453216552734,
        1.0
      ],
      "name": "Piano.001_12"
    },
    {
      "mesh": 6,
      "name": "Object_16"
    },
    {
      "children": [
        18
      ],
      "matrix": [
        -5.668467729542718,
        0.0,
        0.03349738082101288,
        0.0,
        0.0,
        5.668567180633545,
        0.0,
        0.0,
        -0.03349738082101288,
        0.0,
        -5.668467729542718,
        0.0,
        20.794960021972656,
        4.583994388580322,
        12.679330825805664,
        1.0
      ],
      "name": "Piano.002_13"
    },
    {
      "mesh": 7,
      "name": "Object_18"
    }
  ],
  "samplers": [
    {
      "magFilter": 9729,
      "minFilter": 9987,
      "wrapS": 10497,
      "wrapT": 10497
    }
  ],
  "scene": 0,
  "scenes": [
    {
      "name": "Sketchfab_Scene",
      "nodes": [
        0
      ]
    }
  ],
  "textures": [
    {
      "sampler": 0,
      "source": 0
    }
  ]
}
