{
  "accessors": [
    {
      "bufferView": 2,
      "componentType": 5126,
      "count": 152,
      "max": [
        0.08008421957492828,
        6.448996067047119,
        1.2957435846328735
      ],
      "min": [
        -0.08008420467376709,
        4.65826416015625,
        0.3529723286628723
      ],
      "type": "VEC3"
    },
    {
      "bufferView": 2,
      "byteOffset": 1824,
      "componentType": 5126,
      "count": 152,
      "max": [
        1.0,
        0.9742352366447449,
        0.9972017407417297
      ],
      "min": [
        -1.0,
        -1.0,
        -0.9972018003463745
      ],
      "type": "VEC3"
    },
    {
      "bufferView": 1,
      "componentType": 5126,
      "count": 152,
      "max": [
        0.2683854401111603,
        0.7121127843856812
      ],
      "min": [
        0.2683854103088379,
        0.7121127247810364
      ],
      "type": "VEC2"
    },
    {
      "bufferView": 0,
      "componentType": 5125,
      "count": 228,
      "type": "SCALAR"
    },
    {
      "bufferView": 2,
      "byteOffset": 3648,
      "componentType": 5126,
      "count": 152,
      "max": [
        0.08008414506912231,
        6.486324310302734,
        -0.3529489040374756
      ],
      "min": [
        -0.08008420467376709,
        4.618048667907715,
        -1.2909255027770996
      ],
      "type": "VEC3"
    },
    {
      "bufferView": 2,
      "byteOffset": 5472,
      "componentType": 5126,
      "count": 152,
      "max": [
        1.0,
        0.9616877436637878,
        0.9972012042999268
      ],
      "min": [
        -1.0,
        -1.0,
        -0.9972013235092163
      ],
      "type": "VEC3"
    },
    {
      "bufferView": 1,
      "byteOffset": 1216,
      "componentType": 5126,
      "count": 152,
      "max": [
        0.2683854401111603,
        0.7121127843856812
      ],
      "min": [
        0.2683854103088379,
        0.7121127247810364
      ],
      "type": "VEC2"
    },
    {
      "bufferView": 0,
      "byteOffset": 912,
      "componentType": 5125,
      "count": 228,
      "type": "SCALAR"
    },
    {
      "bufferView": 2,
      "byteOffset": 7296,
      "componentType": 5126,
      "count": 318,
      "max": [
        0.9778666496276855,
        3.653785228729248,
        0.9300065636634827
      ],
      "min": [
        -0.9778667688369751,
        2.68754506111145,
        -0.9300066828727722
      ],
      "type": "VEC3"
    },
    {
      "bufferView": 2,
      "byteOffset": 11112,
      "componentType": 5126,
      "count": 318,
      "max": [
        0.9510570168495178,
        1.0,
        1.0
      ],
      "min": [
        -0.9510570168495178,
        -1.0,
        -1.0
      ],
      "type": "VEC3"
    },
    {
      "bufferView": 1,
      "byteOffset": 2432,
      "componentType": 5126,
      "count": 318,
      "max": [
        0.20396649837493896,
        0.46785759925842285
      ],
      "min": [
        0.20396637916564941,
        0.46785759925842285
      ],
      "type": "VEC2"
    },
    {
      "bufferView": 0,
      "byteOffset": 1824,
      "componentType": 5125,
      "count": 480,
      "type": "SCALAR"
    },
    {
      "bufferView": 2,
      "byteOffset": 14928,
      "componentType": 5126,
      "count": 402,
      "max": [
        0.8011046051979065,
        3.6177799701690674,
        0.7447955012321472
      ],
      "min": [
        -0.7447955012321472,
        0.3079230785369873,
        -0.7447953820228577
      ],
      "type": "VEC3"
    },
    {
      "bufferView": 2,
      "byteOffset": 19752,
      "componentType": 5126,
      "count": 402,
      "max": [
        0.945311963558197,
        1.0,
        1.0
      ],
      "min": [
        -0.932532787322998,
        -1.0,
        -1.0
      ],
      "type": "VEC3"
    },
    {
      "bufferView": 1,
      "byteOffset": 4976,
      "componentType": 5126,
      "count": 402,
      "max": [
        0.2683854401111603,
        0.7121127843856812
      ],
      "min": [
        0.2683854103088379,
        0.7121126651763916
      ],
      "type": "VEC2"
    },
    {
      "bufferView": 0,
      "byteOffset": 3744,
      "componentType": 5125,
      "count": 624,
      "type": "SCALAR"
    }
  ],
  "asset": {
    "extras": {
      "author": "Synty Studios (https://sketchfab.com/syntystudios)",
      "license": "CC-BY-4.0 (http://creativecommons.org/licenses/by/4.0/)",
      "source": "https://sketchfab.com/3d-models/a-cool-little-cup-just-for-fun-afd10a0435184da58cb5f391c0499b14",
      "title": "A cool little cup just for fun :)"
    },
    "generator": "Sketchfab-12.65.0",
    "version": "2.0"
  },
  "bufferViews": [
    {
      "buffer": 0,
      "byteLength": 6240,
      "name": "floatBufferViews",
      "target": 34963
    },
    {
      "buffer": 0,
      "byteLength": 8192,
      "byteOffset": 6240,
      "byteStride": 8,
      "name": "floatBufferViews",
      "target": 34962
    },
    {
      "buffer": 0,
      "byteLength": 24576,
      "byteOffset": 14432,
      "byteStride": 12,
      "name": "floatBufferViews",
      "target": 34962
    }
  ],
  "buffers": [
    {
      "byteLength": 39008,
      "uri": "scene.bin"
    }
  ],
  "materials": [
    {
      "doubleSided": true,
      "name": "metal",
      "pbrMetallicRoughness": {
        "baseColorFactor": [
          0.9504074916579607,
          0.5527318376890404,
          0.13455680510410017,
          1.0
        ],
        "metallicFactor": 0.5992662921641607,
        "roughnessFactor": 0.4923480531704501
      }
    },
    {
      "doubleSided": true,
      "name": "wood",
      "pbrMetallicRoughness": {
        "baseColorFactor": [
          0.14107431122548625,
          0.027930069875279438,
          0.005093519585117487,
          1.0
        ],
        "metallicFactor": 0.0,
        "roughnessFactor": 0.6
      }
    }
  ],
  "meshes": [
    {
      "name": "polySurface3_metal_0",
      "primitives": [
        {
          "attributes": {
            "NORMAL": 1,
            "POSITION": 0,
            "TEXCOORD_0": 2
          },
          "indices": 3,
          "material": 0,
          "mode": 4
        }
      ]
    },
    {
      "name": "polySurface4_metal_0",
      "primitives": [
        {
          "attributes": {
            "NORMAL": 5,
            "POSITION": 4,
            "TEXCOORD_0": 6
          },
          "indices": 7,
          "material": 0,
          "mode": 4
        }
      ]
    },
    {
      "name": "polySurface5_wood_0",
      "primitives": [
        {
          "attributes": {
            "NORMAL": 9,
            "POSITION": 8,
            "TEXCOORD_0": 10
          },
          "indices": 11,
          "material": 1,
          "mode": 4
        }
      ]
    },
    {
      "name": "polySurface6_metal_0",
      "primitives": [
        {
          "attributes": {
            "NORMAL": 13,
            "POSITION": 12,
            "TEXCOORD_0": 14
          },
          "indices": 15,
          "material": 0,
          "mode": 4
        }
      ]
    }
  ],
  "nodes": [
    {
      "children": [
        1
      ],
      "matrix": [
        0.8862046003341675,
        0.0,
        0.0,
        0.0,
        0.0,
        1.9677695036394549e-16,
        -0.8862046003341675,
        0.0,
        0.0,
        0.8862046003341675,
        1.9677695036394549e-16,
        0.0,
        0.0,
        0.0,
        0.0,
        1.0
      ],
      "name": "Sketchfab_model"
    },
    {
      "children": [
        2
      ],
      "matrix": [
        1.0,
        0.0,
        0.0,
        0.0,
        0.0,
        0.0,
        1.0,
        0.0,
        0.0,
        -1.0,
        0.0,
        0.0,
        0.0,
        0.0,
        0.0,
        1.0
      ],
      "name": "894b581a43644fbfa84999610b09456a.fbx"
    },
    {
      "children": [
        3,
        8
      ],
      "name": "RootNode"
    },
    {
      "children": [
        4,
        6
      ],
      "matrix": [
        1.0,
        0.0,
        0.0,
        0.0,
        0.0,
        1.0,
        0.0,
        0.0,
        0.0,
        0.0,
        1.0,
        0.0,
        0.0,
        -2.68754506111145,
        0.0,
        1.0
      ],
      "name": "pCylinder7"
    },
    {
      "children": [
        5
      ],
      "name": "polySurface3"
    },
    {
      "mesh": 0,
      "name": "polySurface3_metal_0"
    },
    {
      "children": [
        7
      ],
      "name": "polySurface4"
    },
    {
      "mesh": 1,
      "name": "polySurface4_metal_0"
    },
    {
      "children": [
        9,
        11
      ],
      "name": "group1"
    },
    {
      "children": [
        10
      ],
      "matrix": [
        1.0,
        0.0,
        0.0,
        0.0,
        0.0,
        1.0,
        0.0,
        0.0,
        0.0,
        0.0,
        1.0,
        0.0,
        0.0,
        -2.68754506111145,
        0.0,
        1.0
      ],
      "name": "polySurface5"
    },
    {
      "mesh": 2,
      "name": "polySurface5_wood_0"
    },
    {
      "children": [
        12
      ],
      "name": "polySurface6"
    },
    {
      "mesh": 3,
      "name": "polySurface6_metal_0"
    }
  ],
  "scene": 0,
  "scenes": [
    {
      "name": "Sketchfab_Scene",
      "nodes": [
        0
      ]
    }
  ]
}
